<?xml version="1.0" encoding="utf-8"?>
<!-- Generator: Adobe Illustrator 24.0.1, SVG Export Plug-In . SVG Version: 6.00 Build 0)  -->
<svg version="1.1" id="Слой_1" xmlns="http://www.w3.org/2000/svg" xmlns:xlink="http://www.w3.org/1999/xlink" x="0px" y="0px"
	 viewBox="0 0 119.1 112.9" style="enable-background:new 0 0 119.1 112.9;" xml:space="preserve">
<style type="text/css">
	.st0{fill:#288BE6;}
</style>
<path class="st0" d="M34.5,19.2c-7.7,0-14.1,6.4-14.1,14.1v47.7c0,7.7,6.4,14.1,14.1,14.1h47.7c7.7,0,14.1-6.4,14.1-14.1V33.4
	c0-7.7-6.4-14.1-14.1-14.1H34.5z M34.5,26.1h47.7c4,0,7.2,3.2,7.2,7.2v47.7c0,4-3.2,7.2-7.2,7.2H34.5c-4,0-7.2-3.2-7.2-7.2V33.4
	C27.2,29.4,30.5,26.1,34.5,26.1z M57.4,44.2c-2.5,0-4.7,0.1-5.9,0.6c-0.8,0.4-1.5,1.2-1.1,1.3c0.5,0.1,1.6,0.3,2.2,1.1
	c0.7,1,0.6,3.2,0.6,3.2s0.4,6.1-1,6.9c-1,0.5-2.3-0.6-5.1-5.5c-1.4-2.5-2.5-5.2-2.5-5.2s-0.3-0.6-0.6-0.9c-0.5-0.3-1.1-0.4-1.1-0.4
	l-6.7,0.1c0,0-1,0-1.4,0.4c-0.3,0.4-0.1,1.2-0.1,1.2S40,59.5,46,65.8c5.5,5.7,11.8,5.3,11.8,5.3h2.8c0,0,0.9-0.1,1.3-0.5
	c0.4-0.4,0.3-1.3,0.3-1.3s0-3.8,1.7-4.3c1.7-0.5,4,3.7,6.4,5.3c1.8,1.2,3.1,1,3.1,1l6.3-0.1c0,0,3.3-0.2,1.7-2.8
	c-0.1-0.2-0.9-1.9-4.6-5.4c-4-3.7-3.5-3.1,1.3-9.5c2.9-3.9,4.1-6.2,3.8-7.2c-0.3-1-2.5-0.6-2.5-0.6h-7.1c0,0-0.6,0-1,0.2
	c-0.4,0.2-0.6,0.8-0.6,0.8s-1.1,3-2.6,5.5c-3.2,5.4-4.4,5.6-5,5.3c-1.2-0.8-0.9-3.1-0.9-4.8c0-5.2,0.8-7.4-1.5-8
	C59.9,44.3,59.3,44.2,57.4,44.2z"/>
</svg>
