<?xml version="1.0" encoding="utf-8"?>
<!-- Generator: Adobe Illustrator 24.0.1, SVG Export Plug-In . SVG Version: 6.00 Build 0)  -->
<svg version="1.1" id="Слой_1" xmlns="http://www.w3.org/2000/svg" xmlns:xlink="http://www.w3.org/1999/xlink" x="0px" y="0px"
	 viewBox="0 0 119.1 112.9" style="enable-background:new 0 0 119.1 112.9;" xml:space="preserve">
<style type="text/css">
	.st0{fill:#FFFFFF;}
</style>
<path class="st0" d="M23.8,2.1c-11.2,0-20.4,9.3-20.4,20.4v69.1c0,11.2,9.3,20.4,20.4,20.4h69.1c11.2,0,20.4-9.3,20.4-20.4v-69
	c0-11.2-9.3-20.4-20.4-20.4H23.8V2.1z M23.8,12.1h69.1c5.8,0,10.4,4.6,10.4,10.4v69.1c0,5.8-4.6,10.4-10.4,10.4H23.8
	c-5.8,0-10.4-4.6-10.4-10.4v-69C13.2,16.9,18,12.1,23.8,12.1z M57,38.4c-3.6,0-6.8,0.1-8.6,0.9c-1.2,0.6-2.2,1.7-1.6,1.9
	c0.7,0.1,2.3,0.4,3.2,1.6c1,1.4,0.9,4.6,0.9,4.6s0.6,8.8-1.4,10c-1.4,0.7-3.3-0.9-7.4-8c-2-3.6-3.6-7.5-3.6-7.5S38,41,37.6,40.6
	C36.8,40.1,36,40,36,40l-9.7,0.1c0,0-1.4,0-2,0.6c-0.4,0.6-0.1,1.7-0.1,1.7s7.7,18.1,16.4,27.2c8,8.3,17.1,7.7,17.1,7.7h4.1
	c0,0,1.3-0.1,1.9-0.7c0.6-0.6,0.4-1.9,0.4-1.9s0-5.5,2.5-6.2c2.5-0.7,5.8,5.4,9.3,7.7c2.6,1.7,4.5,1.4,4.5,1.4l9.1-0.1
	c0,0,4.8-0.3,2.5-4.1c-0.1-0.3-1.3-2.8-6.7-7.8c-5.8-5.4-5.1-4.5,1.9-13.8c4.2-5.7,5.9-9,5.5-10.4c-0.4-1.4-3.6-0.9-3.6-0.9H78.6
	c0,0-0.9,0-1.4,0.3c-0.6,0.3-0.9,1.2-0.9,1.2s-1.6,4.3-3.8,8c-4.6,7.8-6.4,8.1-7.2,7.7c-1.7-1.2-1.3-4.5-1.3-7
	c0-7.5,1.2-10.7-2.2-11.6C60.6,38.5,59.7,38.4,57,38.4z"/>
</svg>
