<?xml version="1.0" encoding="utf-8"?>
<!-- Generator: Adobe Illustrator 24.0.1, SVG Export Plug-In . SVG Version: 6.00 Build 0)  -->
<svg version="1.1" id="svg4525" xmlns="http://www.w3.org/2000/svg" xmlns:xlink="http://www.w3.org/1999/xlink" x="0px" y="0px"
	 viewBox="0 0 16.7 18.3" style="enable-background:new 0 0 16.7 18.3;" xml:space="preserve">
<style type="text/css">
	.st0{fill:#D4B830;}
	.st1{opacity:0.986;fill:#EBEBEB;fill-opacity:0;enable-background:new    ;}
	.st2{opacity:0.986;fill:#EBEBEB;fill-opacity:0.9216;enable-background:new    ;}
	.st3{fill:#FDD83C;}
</style>
<g id="g5193" transform="translate(4.988 -113.385)">
	<path id="path5113" class="st0" d="M-3.5,129.9L-5,113.7l16,0l-1.5,16.2L3,131.7L-3.5,129.9z M8.3,129l1.2-13.9H3l0,15.3L8.3,129z
		 M2.4,117.2H0.8l0,8.3l-3.1-0.8l0,1.9l4.7,1.3L2.4,117.2L2.4,117.2z"/>
	<path id="path5159" class="st1" d="M1.9,127.6c-0.2-0.1-1.2-0.3-2.3-0.6l-1.9-0.5v-0.9c0-0.9,0-0.9,0.1-0.9c0,0,0.7,0.2,1.5,0.4
		l1.4,0.4l0-4.1l0-4.1h1.6v5.3c0,4.2,0,5.3-0.1,5.3C2.3,127.7,2.1,127.7,1.9,127.6L1.9,127.6z"/>
	<path id="path5157" class="st2" d="M-2.3,126.5l0-1.9c0,0,2,0.5,3.1,0.8l0-8.3h1.6v10.6L-2.3,126.5L-2.3,126.5z"/>
	<path id="path5117" class="st3" d="M3,115.1h6.6L8.3,129L3,130.4V115.1z M8,126.7l0.4-5.2l-3.2,0.4v-2.8l3.4,0l0.1-1.9l-5.1,0
		l0.1,6.9l3.1-0.5l0,1.5l-3.1,0.8l0,1.9L8,126.7L8,126.7z"/>
</g>
</svg>
